<svg width="32" height="32" viewBox="0 0 32 32" fill="none" xmlns="http://www.w3.org/2000/svg">
<path d="M13.0596 0.219727C10.9867 0.219727 9.30699 1.86956 9.30699 3.90567V6.11724H3.30285C1.64421 6.11724 0.300781 7.43681 0.300781 9.066V14.9635H2.55233C4.62526 14.9635 6.30492 16.6133 6.30492 18.6495C6.30492 20.6856 4.62526 22.3354 2.55233 22.3354H0.300781V28.2329C0.300781 29.8621 1.64421 31.1817 3.30285 31.1817H9.30699V28.9701C9.30699 26.934 10.9867 25.2842 13.0596 25.2842C15.1325 25.2842 16.8122 26.934 16.8122 28.9701V31.1817H22.8163C24.475 31.1817 25.8184 29.8621 25.8184 28.2329V22.3354H28.0699C30.1429 22.3354 31.8225 20.6856 31.8225 18.6495C31.8225 16.6133 30.1429 14.9635 28.0699 14.9635H25.8184V9.066C25.8184 7.43681 24.475 6.11724 22.8163 6.11724H16.8122V3.90567C16.8122 1.86956 15.1325 0.219727 13.0596 0.219727Z" fill="#18181B"/>
</svg>
