<svg width="37" height="37" viewBox="0 0 37 37" fill="none" xmlns="http://www.w3.org/2000/svg">
<path fill-rule="evenodd" clip-rule="evenodd" d="M0.574219 0.219727H31.5742V5.21973H29.5742V2.21973H2.57422V25.2197H23.9612V27.2197H0.574219V0.219727ZM30.5742 13.2197C31.3699 13.2197 32.1329 12.9037 32.6955 12.341C33.2581 11.7784 33.5742 11.0154 33.5742 10.2197C33.5742 9.42408 33.2581 8.66101 32.6955 8.09841C32.1329 7.5358 31.3699 7.21973 30.5742 7.21973C29.7786 7.21973 29.0155 7.5358 28.4529 8.09841C27.8903 8.66101 27.5742 9.42408 27.5742 10.2197C27.5742 11.0154 27.8903 11.7784 28.4529 12.341C29.0155 12.9037 29.7786 13.2197 30.5742 13.2197ZM32.6052 15.2297C33.9042 15.2297 34.9322 15.8137 35.6052 16.7157C36.2342 17.5607 36.5002 18.6057 36.5602 19.5707C36.6197 20.5606 36.4848 21.5526 36.1632 22.4907C35.8632 23.3607 35.3562 24.2607 34.5742 24.8777V34.7197C34.5749 35.0966 34.4338 35.4599 34.1788 35.7375C33.9238 36.015 33.5737 36.1864 33.1981 36.2175C32.8225 36.2486 32.449 36.1372 32.1518 35.9055C31.8546 35.6737 31.6556 35.3386 31.5942 34.9667L30.3042 27.2197H30.0062L28.5482 34.9957C28.479 35.3627 28.2753 35.6907 27.9771 35.9155C27.6789 36.1403 27.3075 36.2458 26.9356 36.2112C26.5637 36.1767 26.2181 36.0047 25.9663 35.7289C25.7146 35.453 25.5747 35.0932 25.5742 34.7197V20.4527C25.3742 20.7573 25.1769 21.0637 24.9822 21.3717L24.9042 21.4947L24.8842 21.5267L24.8792 21.5357C24.7444 21.7521 24.5567 21.9306 24.3338 22.0543C24.1109 22.178 23.8602 22.2429 23.6052 22.2427H18.6052C18.2074 22.2427 17.8259 22.0847 17.5446 21.8034C17.2633 21.5221 17.1052 21.1406 17.1052 20.7427C17.1052 20.3449 17.2633 19.9634 17.5446 19.6821C17.8259 19.4008 18.2074 19.2427 18.6052 19.2427H22.7822C23.0252 18.8667 23.3452 18.3787 23.6812 17.8887C24.0312 17.3777 24.4172 16.8367 24.7612 16.4127C24.9282 16.2057 25.1152 15.9897 25.3032 15.8127C25.3952 15.7257 25.5232 15.6127 25.6792 15.5127C25.954 15.331 26.2757 15.233 26.6052 15.2307L32.6052 15.2297Z" fill="black"/>
</svg>
