<svg width="31" height="31" viewBox="0 0 31 31" fill="none" xmlns="http://www.w3.org/2000/svg">
<path d="M2.65234 13.9697C5.56734 10.9172 9.70609 10.7735 12.6523 13.9697M17.6523 27.7197C20.5673 24.6672 24.7061 24.5235 27.6523 27.7197M3.90234 17.7197C3.90234 22.5572 7.81484 26.4697 12.6523 26.4697L11.4023 23.9697M18.9023 3.96973H26.4023M18.9023 7.71973H26.4023M18.9023 11.4697H23.2773M10.7711 5.84473C10.7711 7.56973 9.37109 8.96973 7.64234 8.96973C7.23154 8.97039 6.82464 8.89004 6.44492 8.73329C6.0652 8.57654 5.72012 8.34646 5.4294 8.05621C5.13869 7.76596 4.90806 7.42124 4.7507 7.04177C4.59334 6.6623 4.51234 6.25553 4.51234 5.84473C4.51234 4.11973 5.91234 2.71973 7.64234 2.71973C8.05304 2.71924 8.45981 2.7997 8.83938 2.95653C9.21896 3.11335 9.5639 3.34346 9.85448 3.63369C10.1451 3.92393 10.3756 4.26859 10.5329 4.64798C10.6901 5.02736 10.7711 5.43403 10.7711 5.84473ZM25.7711 19.5947C25.7711 21.3197 24.3711 22.7197 22.6411 22.7197C22.2304 22.7202 21.8236 22.6398 21.4441 22.4829C21.0645 22.3261 20.7195 22.096 20.429 21.8058C20.1384 21.5155 19.9079 21.1709 19.7506 20.7915C19.5933 20.4121 19.5123 20.0054 19.5123 19.5947C19.5123 17.8697 20.9123 16.4697 22.6411 16.4697C23.0519 16.4691 23.4588 16.5494 23.8385 16.7062C24.2182 16.8629 24.5633 17.093 24.854 17.3833C25.1447 17.6735 25.3754 18.0182 25.5327 18.3977C25.6901 18.7772 25.7711 19.1839 25.7711 19.5947Z" stroke="black" stroke-width="1.5" stroke-linecap="round" stroke-linejoin="round"/>
</svg>
