<svg width="31" height="27" viewBox="0 0 31 27" fill="none" xmlns="http://www.w3.org/2000/svg">
<path d="M29.3125 11.8525H16.5625V8.66504H17.625C18.1886 8.66504 18.7291 8.44116 19.1276 8.04264C19.5261 7.64413 19.75 7.10362 19.75 6.54004V2.29004C19.75 1.72645 19.5261 1.18595 19.1276 0.787437C18.7291 0.388922 18.1886 0.165039 17.625 0.165039H13.375C12.8114 0.165039 12.2709 0.388922 11.8724 0.787437C11.4739 1.18595 11.25 1.72645 11.25 2.29004V6.54004C11.25 7.10362 11.4739 7.64413 11.8724 8.04264C12.2709 8.44116 12.8114 8.66504 13.375 8.66504H14.4375V11.8525H1.6875C1.40571 11.8525 1.13546 11.9645 0.936199 12.1637C0.736942 12.363 0.625 12.6332 0.625 12.915C0.625 13.1968 0.736942 13.4671 0.936199 13.6663C1.13546 13.8656 1.40571 13.9775 1.6875 13.9775H5.9375V18.2275H4.875C4.31141 18.2275 3.77091 18.4514 3.3724 18.8499C2.97388 19.2485 2.75 19.789 2.75 20.3525V24.6025C2.75 25.1661 2.97388 25.7066 3.3724 26.1051C3.77091 26.5037 4.31141 26.7275 4.875 26.7275H9.125C9.68859 26.7275 10.2291 26.5037 10.6276 26.1051C11.0261 25.7066 11.25 25.1661 11.25 24.6025V20.3525C11.25 19.789 11.0261 19.2485 10.6276 18.8499C10.2291 18.4514 9.68859 18.2275 9.125 18.2275H8.0625V13.9775H22.9375V18.2275H21.875C21.3114 18.2275 20.7709 18.4514 20.3724 18.8499C19.9739 19.2485 19.75 19.789 19.75 20.3525V24.6025C19.75 25.1661 19.9739 25.7066 20.3724 26.1051C20.7709 26.5037 21.3114 26.7275 21.875 26.7275H26.125C26.6886 26.7275 27.2291 26.5037 27.6276 26.1051C28.0261 25.7066 28.25 25.1661 28.25 24.6025V20.3525C28.25 19.789 28.0261 19.2485 27.6276 18.8499C27.2291 18.4514 26.6886 18.2275 26.125 18.2275H25.0625V13.9775H29.3125C29.5943 13.9775 29.8645 13.8656 30.0638 13.6663C30.2631 13.4671 30.375 13.1968 30.375 12.915C30.375 12.6332 30.2631 12.363 30.0638 12.1637C29.8645 11.9645 29.5943 11.8525 29.3125 11.8525ZM13.375 2.29004H17.625V6.54004H13.375V2.29004ZM9.125 24.6025H4.875V20.3525H9.125V24.6025ZM26.125 24.6025H21.875V20.3525H26.125V24.6025Z" fill="black"/>
</svg>
