<svg width="29" height="24" viewBox="0 0 29 24" fill="none" xmlns="http://www.w3.org/2000/svg">
<path d="M26.1875 0.1875H2.8125C2.24891 0.1875 1.70841 0.411383 1.3099 0.809898C0.911383 1.20841 0.6875 1.74891 0.6875 2.3125V21.4375C0.6875 22.0011 0.911383 22.5416 1.3099 22.9401C1.70841 23.3386 2.24891 23.5625 2.8125 23.5625H4.59086C4.79195 23.5626 4.98892 23.5056 5.1589 23.3981C5.32888 23.2907 5.46488 23.1372 5.55109 22.9555C6.06776 21.8647 6.88348 20.943 7.9034 20.2975C8.92331 19.6521 10.1055 19.3094 11.3125 19.3094C12.5195 19.3094 13.7017 19.6521 14.7216 20.2975C15.7415 20.943 16.5572 21.8647 17.0739 22.9555C17.1601 23.1372 17.2961 23.2907 17.4661 23.3981C17.6361 23.5056 17.8331 23.5626 18.0341 23.5625H26.1875C26.7511 23.5625 27.2916 23.3386 27.6901 22.9401C28.0886 22.5416 28.3125 22.0011 28.3125 21.4375V2.3125C28.3125 1.74891 28.0886 1.20841 27.6901 0.809898C27.2916 0.411383 26.7511 0.1875 26.1875 0.1875ZM8.125 14C8.125 13.3696 8.31194 12.7533 8.66219 12.2291C9.01244 11.7049 9.51026 11.2964 10.0927 11.0551C10.6751 10.8139 11.316 10.7508 11.9344 10.8737C12.5527 10.9967 13.1206 11.3003 13.5664 11.7461C14.0122 12.1919 14.3158 12.7598 14.4388 13.3781C14.5617 13.9965 14.4986 14.6374 14.2574 15.2198C14.0161 15.8022 13.6076 16.3001 13.0834 16.6503C12.5592 17.0006 11.9429 17.1875 11.3125 17.1875C10.4671 17.1875 9.65637 16.8517 9.0586 16.2539C8.46082 15.6561 8.125 14.8454 8.125 14ZM26.1875 21.4375H18.6743C17.787 19.9121 16.4495 18.6985 14.8453 17.9631C15.6496 17.247 16.2173 16.3033 16.473 15.2572C16.7288 14.2111 16.6606 13.1119 16.2774 12.1054C15.8943 11.099 15.2143 10.2327 14.3276 9.62152C13.4409 9.01032 12.3894 8.68302 11.3125 8.68302C10.2356 8.68302 9.18408 9.01032 8.2974 9.62152C7.41072 10.2327 6.73074 11.099 6.3476 12.1054C5.96445 13.1119 5.89623 14.2111 6.15199 15.2572C6.40774 16.3033 6.97539 17.247 7.77969 17.9631C6.1755 18.6985 4.83805 19.9121 3.9507 21.4375H2.8125V2.3125H26.1875V21.4375ZM4.9375 7.625V5.5C4.9375 5.21821 5.04944 4.94796 5.2487 4.7487C5.44796 4.54944 5.71821 4.4375 6 4.4375H23C23.2818 4.4375 23.552 4.54944 23.7513 4.7487C23.9506 4.94796 24.0625 5.21821 24.0625 5.5V18.25C24.0625 18.5318 23.9506 18.802 23.7513 19.0013C23.552 19.2006 23.2818 19.3125 23 19.3125H20.875C20.5932 19.3125 20.323 19.2006 20.1237 19.0013C19.9244 18.802 19.8125 18.5318 19.8125 18.25C19.8125 17.9682 19.9244 17.698 20.1237 17.4987C20.323 17.2994 20.5932 17.1875 20.875 17.1875H21.9375V6.5625H7.0625V7.625C7.0625 7.90679 6.95056 8.17704 6.7513 8.3763C6.55204 8.57556 6.28179 8.6875 6 8.6875C5.71821 8.6875 5.44796 8.57556 5.2487 8.3763C5.04944 8.17704 4.9375 7.90679 4.9375 7.625Z" fill="#111111"/>
</svg>
