<svg width="30" height="29" viewBox="0 0 30 29" fill="none" xmlns="http://www.w3.org/2000/svg">
<path d="M0.985352 0.143555H8.17777C9.65139 0.14468 11.0643 0.730571 12.1063 1.77258C13.1483 2.81458 13.7342 4.22752 13.7354 5.70114V12.8936H6.54293C5.06932 12.8924 3.65638 12.3065 2.61437 11.2645C1.57237 10.2225 0.986477 8.80959 0.985352 7.33597V0.143555ZM3.81869 2.97689V7.33597C3.81869 8.83764 5.04269 10.0602 6.54293 10.0602H10.902V5.70114C10.902 4.19947 9.67802 2.97689 8.17777 2.97689H3.81869ZM22.1263 2.97689C20.6246 2.97689 19.402 4.20089 19.402 5.70114V10.0602H23.7611C25.2628 10.0602 26.4854 8.83622 26.4854 7.33597V2.97689H22.1263ZM16.5687 5.70114C16.5698 4.22752 17.1557 2.81458 18.1977 1.77258C19.2397 0.730571 20.6527 0.14468 22.1263 0.143555H29.3187V7.33597C29.3176 8.80959 28.7317 10.2225 27.6897 11.2645C26.6477 12.3065 25.2347 12.8924 23.7611 12.8936H16.5687V5.70114ZM6.54293 18.5602C5.04127 18.5602 3.81869 19.7842 3.81869 21.2845V25.6436H8.17777C9.67944 25.6436 10.902 24.4196 10.902 22.9193V18.5602H6.54293ZM0.985352 21.2845C0.986477 19.8109 1.57237 18.3979 2.61437 17.3559C3.65638 16.3139 5.06932 15.728 6.54293 15.7269H13.7354V22.9193C13.7342 24.3929 13.1483 25.8059 12.1063 26.8479C11.0643 27.8899 9.65139 28.4758 8.17777 28.4769H0.985352V21.2845ZM16.5687 15.7269H23.7611C25.2347 15.728 26.6477 16.3139 27.6897 17.3559C28.7317 18.3979 29.3176 19.8109 29.3187 21.2845V28.4769H22.1263C20.6527 28.4758 19.2397 27.8899 18.1977 26.8479C17.1557 25.8059 16.5698 24.3929 16.5687 22.9193V15.7269ZM19.402 18.5602V22.9193C19.402 24.421 20.626 25.6436 22.1263 25.6436H26.4854V21.2845C26.4854 19.7828 25.2628 18.5602 23.7611 18.5602H19.402Z" fill="black"/>
</svg>
