<svg width="21" height="21" viewBox="0 0 21 21" fill="none" xmlns="http://www.w3.org/2000/svg">
<path fill-rule="evenodd" clip-rule="evenodd" d="M10.5 18.0664C14.9183 18.0664 18.5 14.4847 18.5 10.0664C18.5 5.64813 14.9183 2.06641 10.5 2.06641C6.08172 2.06641 2.5 5.64813 2.5 10.0664C2.5 14.4847 6.08172 18.0664 10.5 18.0664ZM14.2071 8.77351C14.5976 8.38299 14.5976 7.74982 14.2071 7.3593C13.8166 6.96878 13.1834 6.96878 12.7929 7.3593L9.5 10.6522L8.20711 9.3593C7.81658 8.96877 7.18342 8.96877 6.79289 9.3593C6.40237 9.74982 6.40237 10.383 6.79289 10.7735L8.79289 12.7735C9.18342 13.164 9.81658 13.164 10.2071 12.7735L14.2071 8.77351Z" fill="#71717A"/>
</svg>
