<svg width="38" height="38" viewBox="0 0 38 38" fill="none" xmlns="http://www.w3.org/2000/svg">
<rect width="38" height="38" rx="19" fill="#111111"/>
<g clip-path="url(#clip0_5267_4475)">
<path d="M28.9972 12.7251C28.9972 13.2175 28.7256 13.705 28.198 14.16C27.6704 14.6149 26.8971 15.0282 25.9222 15.3764C24.9473 15.7246 23.79 16.0007 22.5162 16.1892C21.2425 16.3776 19.8773 16.4746 18.4986 16.4746C15.7142 16.4746 13.0438 16.0796 11.075 15.3764C9.1061 14.6732 8 13.7195 8 12.7251C8 12.2327 8.27155 11.7451 8.79916 11.2902C9.32676 10.8353 10.1001 10.422 11.075 10.0738C12.0499 9.72562 13.2072 9.44943 14.481 9.261C15.7547 9.07257 17.1199 8.97559 18.4986 8.97559C19.8773 8.97559 21.2425 9.07257 22.5162 9.261C23.79 9.44943 24.9473 9.72562 25.9222 10.0738C26.8971 10.422 27.6704 10.8353 28.198 11.2902C28.7256 11.7451 28.9972 12.2327 28.9972 12.7251Z" stroke="white" stroke-linecap="round" stroke-linejoin="round"/>
<path d="M28.9972 26.2236C28.9972 26.8818 28.5121 27.5284 27.5907 28.0984C26.6692 28.6684 25.3439 29.1417 23.7479 29.4708C22.1519 29.7999 20.3415 29.9731 18.4986 29.9731C16.6557 29.9731 14.8453 29.7999 13.2493 29.4708C11.6533 29.1417 10.328 28.6684 9.40655 28.0984C8.4851 27.5284 8 26.8818 8 26.2236" stroke="white" stroke-linecap="round" stroke-linejoin="round"/>
<path d="M28.9972 21.7236C28.9972 22.3818 28.5121 23.0284 27.5907 23.5984C26.6692 24.1684 25.3439 24.6417 23.7479 24.9708C22.1519 25.2999 20.3415 25.4731 18.4986 25.4731C16.6557 25.4731 14.8453 25.2999 13.2493 24.9708C11.6533 24.6417 10.328 24.1684 9.40655 23.5984C8.4851 23.0284 8 22.3818 8 21.7236" stroke="white" stroke-linecap="round" stroke-linejoin="round"/>
<path d="M28.9972 17.2246C28.9972 17.8828 28.5121 18.5294 27.5907 19.0994C26.6692 19.6694 25.3439 20.1427 23.7479 20.4718C22.1519 20.8009 20.3415 20.9741 18.4986 20.9741C16.6557 20.9741 14.8453 20.8009 13.2493 20.4718C11.6533 20.1427 10.328 19.6694 9.40655 19.0994C8.4851 18.5294 8 17.8828 8 17.2246" stroke="white" stroke-linecap="round" stroke-linejoin="round"/>
<path d="M8 12.7256V26.2238" stroke="white" stroke-linecap="round" stroke-linejoin="round"/>
<path d="M28.9971 12.7246V26.2228" stroke="white" stroke-linecap="round" stroke-linejoin="round"/>
</g>
<defs>
<clipPath id="clip0_5267_4475">
<rect width="24" height="24" fill="white" transform="translate(8 7)"/>
</clipPath>
</defs>
</svg>
