<svg width="38" height="38" viewBox="0 0 38 38" fill="none" xmlns="http://www.w3.org/2000/svg">
<rect width="38" height="38" rx="19" fill="#111111"/>
<path d="M17.1647 13.5977C16.9537 14.4777 16.6397 15.3597 15.9997 15.9997C15.3597 16.6397 14.4787 16.9537 13.5977 17.1647C12.1683 17.5071 10.9142 18.3622 10.0735 19.5679C9.23278 20.7736 8.86388 22.2459 9.03679 23.7056C9.20971 25.1652 9.91241 26.5106 11.0116 27.4865C12.1107 28.4624 13.5299 29.0008 14.9997 28.9997C22.7317 28.9997 28.9997 22.7317 28.9997 14.9997C29.0008 13.5299 28.4624 12.1107 27.4865 11.0116C26.5106 9.91241 25.1652 9.20971 23.7056 9.03679C22.2459 8.86388 20.7736 9.23278 19.5679 10.0735C18.3622 10.9142 17.5071 12.1683 17.1647 13.5977Z" stroke="white" stroke-width="2" stroke-linecap="round" stroke-linejoin="round"/>
<path d="M12.3408 17.6198C12.6045 18.2131 13.0085 18.7333 13.5182 19.1355C14.0278 19.5377 14.6277 19.8098 15.266 19.9283C15.9043 20.0468 16.5619 20.0081 17.1819 19.8157C17.802 19.6232 18.3658 19.2828 18.8248 18.8236C19.2839 18.3645 19.6242 17.8006 19.8166 17.1805C20.0089 16.5604 20.0474 15.9029 19.9288 15.2646C19.8102 14.6263 19.538 14.0265 19.1357 13.5169C18.7334 13.0074 18.2131 12.6034 17.6198 12.3398" stroke="white" stroke-width="2" stroke-linecap="round" stroke-linejoin="round"/>
</svg>
