<svg width="38" height="38" viewBox="0 0 38 38" fill="none" xmlns="http://www.w3.org/2000/svg">
<rect width="38" height="38" rx="19" fill="#111111"/>
<path d="M14 27H24" stroke="#FAFAFA" stroke-width="2" stroke-linecap="round" stroke-linejoin="round"/>
<path d="M17 27C22.5 24.5 17.8 20.6 20 17" stroke="#FAFAFA" stroke-width="2" stroke-linecap="round" stroke-linejoin="round"/>
<path d="M16.5 16.4006C17.6 17.2006 18.3 18.6006 18.8 20.1006C16.8 20.5006 15.3 20.5006 14 19.8006C12.8 19.2006 11.7 17.9006 11 15.6006C13.8 15.1006 15.4 15.6006 16.5 16.4006Z" stroke="#FAFAFA" stroke-width="2" stroke-linecap="round" stroke-linejoin="round"/>
<path d="M21.0998 13C20.3374 14.1916 19.9539 15.5861 19.9998 17C21.8998 16.9 23.2998 16.4 24.2998 15.6C25.2998 14.6 25.8998 13.3 25.9998 11C23.2998 11.1 21.9998 12 21.0998 13Z" stroke="#FAFAFA" stroke-width="2" stroke-linecap="round" stroke-linejoin="round"/>
</svg>
