<svg width="15" height="15" viewBox="0 0 15 15" fill="none" xmlns="http://www.w3.org/2000/svg">
<path d="M8.71496 1.8254L9.95031 4.3098C10.1168 4.65339 10.5636 4.97936 10.9404 5.04984L13.1746 5.41986C14.6027 5.65773 14.9357 6.6973 13.9106 7.73687L12.167 9.49006C11.8779 9.78078 11.7114 10.3534 11.8078 10.7675L12.3072 12.9347C12.7014 14.6439 11.7903 15.3134 10.292 14.4148L8.198 13.1638C7.82126 12.9347 7.19044 12.9347 6.81369 13.1638L4.71967 14.4148C3.22144 15.3046 2.31025 14.6439 2.70452 12.9347L3.20393 10.7675C3.30031 10.3622 3.13384 9.78959 2.84471 9.49006L1.10117 7.73687C0.0760658 6.70611 0.409002 5.66654 1.83713 5.41986L4.07132 5.04984C4.44807 4.98817 4.89491 4.65339 5.06138 4.3098L6.29676 1.8254C6.95388 0.477472 8.04032 0.477472 8.71496 1.8254Z" fill="#111111"/>
</svg>
